<?xml version="1.0" encoding="utf-8"?>
<!-- Generator: Adobe Illustrator 25.0.0, SVG Export Plug-In . SVG Version: 6.00 Build 0)  -->
<svg version="1.0" id="Layer_1" xmlns="http://www.w3.org/2000/svg" xmlns:xlink="http://www.w3.org/1999/xlink" x="0px" y="0px"
	 viewBox="0 0 512 512" style="enable-background:new 0 0 512 512;" xml:space="preserve">
<g>
	<path style="fill:#231F20;" d="M127.9,278.7c11.8,0,23-5.1,30.7-14.1c2.7-3.1,2.3-7.9-0.8-10.6c-3.1-2.7-7.9-2.3-10.6,0.8
		c-4.8,5.6-11.9,8.9-19.3,8.9c-14,0-25.4-11.4-25.4-25.4s11.4-25.4,25.4-25.4c5.7,0,11.1,1.8,15.6,5.3c3.3,2.5,8,2,10.5-1.3
		c2.5-3.3,2-8-1.3-10.5c-7.1-5.6-15.7-8.5-24.8-8.5c-22.3,0-40.4,18.1-40.4,40.4S105.6,278.7,127.9,278.7z"/>
	<path style="fill:#231F20;" d="M127.9,304.9c-22.3,0-40.4,18.1-40.4,40.4s18.1,40.4,40.4,40.4s40.4-18.1,40.4-40.4
		S150.1,304.9,127.9,304.9z M127.9,370.6c-14,0-25.4-11.4-25.4-25.4s11.4-25.4,25.4-25.4s25.4,11.4,25.4,25.4
		S141.9,370.6,127.9,370.6z"/>
	<path style="fill:#231F20;" d="M178.7,206.4l-49.6,30.9l-5.1-7.7c-2.3-3.4-7-4.4-10.4-2.1s-4.4,7-2.1,10.4l9.1,13.7
		c1.4,2.2,3.8,3.3,6.2,3.3c1.4,0,2.7-0.4,4-1.1l55.7-34.7c3.5-2.2,4.6-6.8,2.4-10.3C186.9,205.3,182.2,204.2,178.7,206.4z"/>
	<path style="fill:#231F20;" d="M202,230.3h145.3c4.1,0,7.5-3.4,7.5-7.5s-3.4-7.5-7.5-7.5H202c-4.1,0-7.5,3.4-7.5,7.5
		S197.9,230.3,202,230.3z"/>
	<path style="fill:#231F20;" d="M202,263.2h94.1c4.1,0,7.5-3.4,7.5-7.5s-3.4-7.5-7.5-7.5H202c-4.1,0-7.5,3.4-7.5,7.5
		S197.9,263.2,202,263.2z"/>
	<path style="fill:#231F20;" d="M347.3,330.4H202c-4.1,0-7.5,3.4-7.5,7.5s3.4,7.5,7.5,7.5h145.3c4.1,0,7.5-3.4,7.5-7.5
		S351.5,330.4,347.3,330.4z"/>
	<path style="fill:#231F20;" d="M296.2,363.3H202c-4.1,0-7.5,3.4-7.5,7.5s3.4,7.5,7.5,7.5h94.1c4.1,0,7.5-3.4,7.5-7.5
		S300.3,363.3,296.2,363.3z"/>
	<path style="fill:#231F20;" d="M468.9,184.4c-4.6-6-11.2-10-18.7-11.1v-70.7c0-14.5-11.8-26.3-26.3-26.3H63.6
		c-14.5,0-26.3,11.8-26.3,26.3v306.4c0,14.5,11.8,26.3,26.3,26.3h360.3c14.5,0,26.3-11.8,26.3-26.3V234.6l13.2-10.1
		c6.1-4.6,10-11.3,11.1-18.9C475.5,198,473.5,190.5,468.9,184.4z M63.6,91.4h360.3c6.2,0,11.3,5.1,11.3,11.3v45.7H52.3v-45.7
		C52.3,96.4,57.4,91.4,63.6,91.4z M435.2,409.1c0,6.2-5.1,11.3-11.3,11.3H63.6c-6.2,0-11.3-5.1-11.3-11.3V163.4h382.9v11.8
		c-2.3,0.9-4.4,2.2-6.4,3.7l-102.1,77.3c0,0,0,0,0,0c0,0,0,0,0,0c-3.5,2.6-6.3,6.1-8.1,10.1l-23.1,41.4c-1.5,2.6-1.2,5.8,0.6,8.2
		c1.4,1.9,3.7,3,6,3c0.6,0,1.1-0.1,1.7-0.2l46.4-10.9c4.2-0.7,8.2-2.4,11.6-5l0.1-0.1c0,0,0,0,0,0c0,0,0,0,0,0l73.4-56.4V409.1z
		 M358.7,286l-17-22.4l66.1-50l16.6,22L358.7,286z M326.1,297.9l-4.7-6.1l9.7-17.3l14.3,18.9L326.1,297.9z M459.6,203.6
		c-0.5,3.6-2.4,6.8-5.3,9l-18,13.8l-16.6-21.9l18.1-13.7c2.4-1.8,5.3-2.8,8.2-2.8c0.6,0,1.3,0,1.9,0.1c3.6,0.5,6.8,2.4,9,5.3
		C459.2,196.4,460.1,200,459.6,203.6z"/>
	<circle style="fill:#231F20;" cx="81.7" cy="122.8" r="8.7"/>
	
		<ellipse transform="matrix(0.9871 -0.1602 0.1602 0.9871 -18.1411 20.4574)" style="fill:#231F20;" cx="117.8" cy="122.8" rx="8.7" ry="8.7"/>
	<circle style="fill:#231F20;" cx="152.5" cy="122.8" r="8.7"/>
	<path style="fill:#231F20;" d="M338.9,128.9h67.6c4.1,0,7.5-3.4,7.5-7.5s-3.4-7.5-7.5-7.5h-67.6c-4.1,0-7.5,3.4-7.5,7.5
		S334.8,128.9,338.9,128.9z"/>
</g>
</svg>
